<mxfile host="app.diagrams.net" agent="Mozilla/5.0 (Windows NT 10.0; Win64; x64; rv:129.0) Gecko/20100101 Firefox/129.0" version="24.7.8">
  <diagram id="uvZtAQKp2tdWrFkrdhp4" name="Halaman-2">
    <mxGraphModel dx="625" dy="338" grid="1" gridSize="10" guides="1" tooltips="1" connect="1" arrows="1" fold="1" page="1" pageScale="1" pageWidth="827" pageHeight="1169" math="0" shadow="0">
      <root>
        <mxCell id="0" />
        <mxCell id="1" parent="0" />
        <mxCell id="9jK9Ue6CC-1rIntpzCXC-5" value="User" style="swimlane;whiteSpace=wrap;html=1;startSize=20;" parent="1" vertex="1">
          <mxGeometry x="160" y="160" width="160" height="720" as="geometry" />
        </mxCell>
        <mxCell id="9jK9Ue6CC-1rIntpzCXC-8" value="" style="ellipse;whiteSpace=wrap;html=1;aspect=fixed;strokeColor=#000000;fillColor=#FFFFFF;strokeWidth=3;" parent="9jK9Ue6CC-1rIntpzCXC-5" vertex="1">
          <mxGeometry x="65" y="50" width="30" height="30" as="geometry" />
        </mxCell>
        <mxCell id="9jK9Ue6CC-1rIntpzCXC-11" value="" style="endArrow=classic;html=1;rounded=0;exitX=0.5;exitY=1;exitDx=0;exitDy=0;" parent="9jK9Ue6CC-1rIntpzCXC-5" source="9jK9Ue6CC-1rIntpzCXC-8" edge="1">
          <mxGeometry width="50" height="50" relative="1" as="geometry">
            <mxPoint x="80" y="100" as="sourcePoint" />
            <mxPoint x="80" y="110" as="targetPoint" />
          </mxGeometry>
        </mxCell>
        <mxCell id="9jK9Ue6CC-1rIntpzCXC-12" value="Tampilan Menu Utama" style="rounded=0;whiteSpace=wrap;html=1;" parent="9jK9Ue6CC-1rIntpzCXC-5" vertex="1">
          <mxGeometry x="20" y="110" width="120" height="40" as="geometry" />
        </mxCell>
        <mxCell id="9jK9Ue6CC-1rIntpzCXC-19" value="" style="endArrow=classic;html=1;rounded=0;" parent="9jK9Ue6CC-1rIntpzCXC-5" edge="1">
          <mxGeometry width="50" height="50" relative="1" as="geometry">
            <mxPoint x="80" y="310" as="sourcePoint" />
            <mxPoint x="79.57" y="230" as="targetPoint" />
          </mxGeometry>
        </mxCell>
        <mxCell id="9jK9Ue6CC-1rIntpzCXC-18" value="" style="endArrow=none;html=1;rounded=0;exitX=0;exitY=0.5;exitDx=0;exitDy=0;" parent="9jK9Ue6CC-1rIntpzCXC-5" source="9jK9Ue6CC-1rIntpzCXC-17" edge="1">
          <mxGeometry width="50" height="50" relative="1" as="geometry">
            <mxPoint x="190" y="220" as="sourcePoint" />
            <mxPoint x="80" y="310" as="targetPoint" />
          </mxGeometry>
        </mxCell>
        <mxCell id="9jK9Ue6CC-1rIntpzCXC-42" value="Klik Get Started" style="rounded=0;whiteSpace=wrap;html=1;" parent="9jK9Ue6CC-1rIntpzCXC-5" vertex="1">
          <mxGeometry x="20" y="190" width="120" height="40" as="geometry" />
        </mxCell>
        <mxCell id="9jK9Ue6CC-1rIntpzCXC-20" value="&lt;i&gt;&lt;u&gt;YES&lt;/u&gt;&lt;/i&gt;" style="text;html=1;align=center;verticalAlign=middle;resizable=0;points=[];autosize=1;strokeColor=none;fillColor=none;" parent="9jK9Ue6CC-1rIntpzCXC-5" vertex="1">
          <mxGeometry x="80" y="280" width="50" height="30" as="geometry" />
        </mxCell>
        <mxCell id="9jK9Ue6CC-1rIntpzCXC-9" value="START" style="text;html=1;align=center;verticalAlign=middle;resizable=0;points=[];autosize=1;strokeColor=none;fillColor=none;" parent="9jK9Ue6CC-1rIntpzCXC-5" vertex="1">
          <mxGeometry x="50" y="20" width="60" height="30" as="geometry" />
        </mxCell>
        <mxCell id="9jK9Ue6CC-1rIntpzCXC-7" value="Sistem" style="swimlane;whiteSpace=wrap;html=1;startSize=20;" parent="1" vertex="1">
          <mxGeometry x="320" y="160" width="160" height="720" as="geometry" />
        </mxCell>
        <mxCell id="9jK9Ue6CC-1rIntpzCXC-14" value="Halaman About" style="rounded=0;whiteSpace=wrap;html=1;" parent="9jK9Ue6CC-1rIntpzCXC-7" vertex="1">
          <mxGeometry x="25" y="190" width="120" height="40" as="geometry" />
        </mxCell>
        <mxCell id="9jK9Ue6CC-1rIntpzCXC-17" value="Back To&amp;nbsp;&lt;div&gt;Top?&lt;/div&gt;" style="rhombus;whiteSpace=wrap;html=1;" parent="9jK9Ue6CC-1rIntpzCXC-7" vertex="1">
          <mxGeometry x="40" y="270" width="90" height="80" as="geometry" />
        </mxCell>
        <mxCell id="9jK9Ue6CC-1rIntpzCXC-15" value="" style="endArrow=classic;html=1;rounded=0;exitX=0.5;exitY=1;exitDx=0;exitDy=0;" parent="9jK9Ue6CC-1rIntpzCXC-7" source="9jK9Ue6CC-1rIntpzCXC-14" target="9jK9Ue6CC-1rIntpzCXC-17" edge="1">
          <mxGeometry width="50" height="50" relative="1" as="geometry">
            <mxPoint x="70" y="230" as="sourcePoint" />
            <mxPoint x="80" y="190" as="targetPoint" />
          </mxGeometry>
        </mxCell>
        <mxCell id="9jK9Ue6CC-1rIntpzCXC-22" value="" style="endArrow=classic;html=1;rounded=0;exitX=0.5;exitY=1;exitDx=0;exitDy=0;entryX=0.5;entryY=0;entryDx=0;entryDy=0;" parent="9jK9Ue6CC-1rIntpzCXC-7" source="9jK9Ue6CC-1rIntpzCXC-17" target="9jK9Ue6CC-1rIntpzCXC-24" edge="1">
          <mxGeometry width="50" height="50" relative="1" as="geometry">
            <mxPoint x="90" y="290" as="sourcePoint" />
            <mxPoint x="85" y="300" as="targetPoint" />
          </mxGeometry>
        </mxCell>
        <mxCell id="9jK9Ue6CC-1rIntpzCXC-23" value="&lt;i&gt;&lt;u&gt;NO&lt;/u&gt;&lt;/i&gt;" style="text;html=1;align=center;verticalAlign=middle;resizable=0;points=[];autosize=1;strokeColor=none;fillColor=none;" parent="9jK9Ue6CC-1rIntpzCXC-7" vertex="1">
          <mxGeometry x="90" y="350" width="40" height="30" as="geometry" />
        </mxCell>
        <mxCell id="9jK9Ue6CC-1rIntpzCXC-24" value="Halaman About" style="rounded=0;whiteSpace=wrap;html=1;" parent="9jK9Ue6CC-1rIntpzCXC-7" vertex="1">
          <mxGeometry x="25" y="400" width="120" height="40" as="geometry" />
        </mxCell>
        <mxCell id="9jK9Ue6CC-1rIntpzCXC-38" value="" style="ellipse;html=1;shape=endState;fillColor=#FFFFFF;strokeColor=#000000;strokeWidth=2;" parent="9jK9Ue6CC-1rIntpzCXC-7" vertex="1">
          <mxGeometry x="70" y="640" width="30" height="30" as="geometry" />
        </mxCell>
        <mxCell id="9jK9Ue6CC-1rIntpzCXC-27" value="" style="endArrow=classic;html=1;rounded=0;exitX=0.5;exitY=1;exitDx=0;exitDy=0;entryX=0.5;entryY=0;entryDx=0;entryDy=0;" parent="9jK9Ue6CC-1rIntpzCXC-7" source="9jK9Ue6CC-1rIntpzCXC-24" target="5UNtxqFRr6KgYtCyA-H7-1" edge="1">
          <mxGeometry width="50" height="50" relative="1" as="geometry">
            <mxPoint x="70" y="240" as="sourcePoint" />
            <mxPoint x="85" y="380" as="targetPoint" />
          </mxGeometry>
        </mxCell>
        <mxCell id="9jK9Ue6CC-1rIntpzCXC-43" value="&lt;i&gt;&lt;u&gt;FINISH&lt;/u&gt;&lt;/i&gt;" style="text;html=1;align=center;verticalAlign=middle;resizable=0;points=[];autosize=1;strokeColor=none;fillColor=none;" parent="9jK9Ue6CC-1rIntpzCXC-7" vertex="1">
          <mxGeometry x="55" y="670" width="60" height="30" as="geometry" />
        </mxCell>
        <mxCell id="5UNtxqFRr6KgYtCyA-H7-1" value="Halaman Brands" style="rounded=0;whiteSpace=wrap;html=1;" vertex="1" parent="9jK9Ue6CC-1rIntpzCXC-7">
          <mxGeometry x="25" y="480" width="120" height="40" as="geometry" />
        </mxCell>
        <mxCell id="5UNtxqFRr6KgYtCyA-H7-2" value="Halaman Reviews" style="rounded=0;whiteSpace=wrap;html=1;" vertex="1" parent="9jK9Ue6CC-1rIntpzCXC-7">
          <mxGeometry x="25" y="560" width="120" height="40" as="geometry" />
        </mxCell>
        <mxCell id="5UNtxqFRr6KgYtCyA-H7-4" value="" style="endArrow=classic;html=1;rounded=0;exitX=0.5;exitY=1;exitDx=0;exitDy=0;entryX=0.5;entryY=0;entryDx=0;entryDy=0;" edge="1" parent="9jK9Ue6CC-1rIntpzCXC-7" target="5UNtxqFRr6KgYtCyA-H7-2">
          <mxGeometry width="50" height="50" relative="1" as="geometry">
            <mxPoint x="84.75999999999999" y="520" as="sourcePoint" />
            <mxPoint x="84.75999999999999" y="560" as="targetPoint" />
          </mxGeometry>
        </mxCell>
        <mxCell id="5UNtxqFRr6KgYtCyA-H7-5" value="" style="endArrow=classic;html=1;rounded=0;exitX=0.5;exitY=1;exitDx=0;exitDy=0;entryX=0.5;entryY=0;entryDx=0;entryDy=0;" edge="1" parent="9jK9Ue6CC-1rIntpzCXC-7">
          <mxGeometry width="50" height="50" relative="1" as="geometry">
            <mxPoint x="84.75999999999999" y="600" as="sourcePoint" />
            <mxPoint x="85" y="640" as="targetPoint" />
          </mxGeometry>
        </mxCell>
        <mxCell id="9jK9Ue6CC-1rIntpzCXC-13" value="" style="endArrow=classic;html=1;rounded=0;exitX=1;exitY=0.5;exitDx=0;exitDy=0;entryX=0;entryY=0.5;entryDx=0;entryDy=0;" parent="1" source="9jK9Ue6CC-1rIntpzCXC-42" target="9jK9Ue6CC-1rIntpzCXC-14" edge="1">
          <mxGeometry width="50" height="50" relative="1" as="geometry">
            <mxPoint x="250" y="250" as="sourcePoint" />
            <mxPoint x="340" y="290" as="targetPoint" />
          </mxGeometry>
        </mxCell>
        <mxCell id="9jK9Ue6CC-1rIntpzCXC-41" value="" style="endArrow=classic;html=1;rounded=0;exitX=0.5;exitY=1;exitDx=0;exitDy=0;" parent="1" source="9jK9Ue6CC-1rIntpzCXC-12" edge="1">
          <mxGeometry width="50" height="50" relative="1" as="geometry">
            <mxPoint x="250.07" y="470" as="sourcePoint" />
            <mxPoint x="240" y="350" as="targetPoint" />
          </mxGeometry>
        </mxCell>
        <mxCell id="5UNtxqFRr6KgYtCyA-H7-6" value="Activity Diagram" style="text;html=1;align=center;verticalAlign=middle;whiteSpace=wrap;rounded=0;" vertex="1" parent="1">
          <mxGeometry x="230" y="110" width="180" height="30" as="geometry" />
        </mxCell>
      </root>
    </mxGraphModel>
  </diagram>
</mxfile>
